HIERARCHY
ROOT Spine
{
    OFFSET 0.0 0.0 -0.0
    CHANNELS 6 Xposition Yposition Zposition Zrotation Xrotation Yrotation
    JOINT ShoulderCenter
    {
        OFFSET 0.0 35.07554244995117 0.0
        CHANNELS 3 Zrotation Xrotation Yrotation
        JOINT LeftShoulder
        {
            OFFSET 18.598024368286133 0.0 0.0
            CHANNELS 3 Zrotation Xrotation Yrotation
            JOINT LeftElbow
            {
                OFFSET 29.71725082397461 0.0 0.0
                CHANNELS 3 Zrotation Xrotation Yrotation
                JOINT LeftHand
                {
                    OFFSET 32.89411163330078 0.0 0.0
                    CHANNELS 3 Zrotation Xrotation Yrotation
                    End Site
                    {
                        OFFSET 13.157644271850586 0.0 0.0
                    }
                }
            }
        }
        JOINT RightShoulder
        {
            OFFSET -18.598024368286133 0.0 0.0
            CHANNELS 3 Zrotation Xrotation Yrotation
            JOINT RightElbow
            {
                OFFSET -29.71725082397461 0.0 0.0
                CHANNELS 3 Zrotation Xrotation Yrotation
                JOINT RightHand
                {
                    OFFSET -32.89411163330078 0.0 0.0
                    CHANNELS 3 Zrotation Xrotation Yrotation
                    End Site
                    {
                        OFFSET -13.157644271850586 0.0 0.0
                    }
                }
            }
        }
        End Site
        {
            OFFSET 0.0 14.030218124389648 0.0
        }
    }
    JOINT LeftHip
    {
        OFFSET 17.63630222926285 -17.63630222926285 0.0
        CHANNELS 3 Zrotation Xrotation Yrotation
        JOINT LeftKnee
        {
            OFFSET 0.0 -41.61096954345703 0.0
            CHANNELS 3 Zrotation Xrotation Yrotation
            JOINT LeftFoot
            {
                OFFSET 0.0 -44.35432434082031 0.0
                CHANNELS 3 Zrotation Xrotation Yrotation
                End Site
                {
                    OFFSET 0.0 0.0 17.741729736328125
                }
            }
        }
    }
    JOINT RightHip
    {
        OFFSET -17.63630222926285 -17.63630222926285 0.0
        CHANNELS 3 Zrotation Xrotation Yrotation
        JOINT RightKnee
        {
            OFFSET 0.0 -41.61096954345703 0.0
            CHANNELS 3 Zrotation Xrotation Yrotation
            JOINT RightFoot
            {
                OFFSET 0.0 -44.35432434082031 0.0
                CHANNELS 3 Zrotation Xrotation Yrotation
                End Site
                {
                    OFFSET 0.0 0.0 17.741729736328125
                }
            }
        }
    }
}
MOTION
Frames: 6
Frame Time: 0.03333333333333333
-111.89999389648438 11.200000762939453 -3.299999952316284 -2.1271561278235014 2.615612006650119 95.80373675614096 -1.867438807891629e-08 -2.500462086748242e-07 -2.6183737237787756 92.65407638539067 -1.7789058974363476 177.26580400066373 4.4994668594057124e-07 -1.4135410758549696e-06 28.658466711035295 -3.1805546814635168e-15 6.3611093629270335e-15 1.7655625192200634e-31 -98.48435886702948 3.972282051941447 -177.0032987144168 -3.500444998705753e-06 -3.957290779191529e-06 -26.827893424949885 3.1805546814635168e-15 -1.7655625192200634e-31 -6.3611093629270335e-15 -0.3482662747307622 -11.886893631241968 -2.5342667735902333 5.225954764220859 11.305562292525655 -34.408536831957655 5.17254644302753e-34 1.987846675914698e-16 -2.981770013872047e-16 1.4090676048052548 -2.9738645428847374 17.993209598092193 -4.118634575582201 4.22958970116226 7.769919134296791 -3.2085952154405144e-33 1.9878466759146977e-16 1.8496292117300037e-15
-111.80000305175781 11.200000762939453 -3.799999952316284 -1.9580875697494209 2.445621635974125 95.80114765299092 -2.231657026116737e-07 5.0913280762012456e-08 -2.7865827999367996 92.84670845695645 -1.2540701880776468 177.0990754401779 -3.613151098363911e-06 4.251937134097768e-06 28.655825493828228 6.3611093629270335e-15 -6.3611093629270335e-15 3.531125038440127e-31 -98.71413322370684 3.6304355750427773 -176.64158156564054 -6.39152860183443e-07 3.850584218856367e-07 -25.968719368263343 -3.1805546814635164e-15 -1.7655625192200634e-31 6.361109362927033e-15 -0.4679877568085638 -11.978600182262387 -1.3481927361015429 5.392303829172942 11.742944782486727 -35.1460090688939 9.93923337957349e-16 7.951386703658792e-16 8.74652537402467e-15 1.3597309142725758 -2.380979938774908 18.377136778636647 -4.391179721042095 3.515719859103049 6.5603479351485845 0.0 0.0 -1.5444636868727867e-15
-111.69999694824219 11.300000190734863 -4.400000095367432 -1.8001421850906993 2.289481076907138 95.28255235125873 -2.3416796699393207e-08 -2.399077392090167e-07 -1.9701248150676829 92.6934407909192 -0.09000189355034505 177.13415017502643 8.480328831136918e-07 3.4016243568776773e-06 28.48306388559559 6.3611093629270335e-15 3.1805546814635168e-15 -1.7655625192200634e-31 -98.97220600722562 4.142008822980961 -175.65628141948895 4.862790202880764e-07 7.39016527511915e-07 -25.82101122174499 3.1805546814635176e-15 6.361109362927035e-15 -1.7655625192200634e-31 -0.5971335999349136 -11.6477477352206 -1.332574116041318 5.4449558611165205 11.75820811738513 -34.92446922350847 1.1034765745125397e-32 -7.951386703658792e-16 1.5902773407317584e-15 1.286758951377654 -2.062579410857691 18.2908364023698 -4.631649413483356 3.27156366157127 6.243163581859299 0.0 0.0 -4.610484233688875e-16
-111.69999694824219 11.300000190734863 -4.900000095367432 -1.7950169411381314 2.1200570121332247 94.7416953376311 1.0494820122931664e-07 2.2271332092548857e-07 -1.5896537795385717 92.88318831464689 0.4752712590008552 177.13069798480396 -5.790856742712518e-07 1.2595392338819719e-06 27.925310772481996 -3.1805546814635168e-15 0.0 0.0 -98.89446581912276 5.141042347535833 -175.48575861840678 -2.505506817102093e-06 1.5935354810212987e-07 -25.534051873479015 -6.3611093629270335e-15 -6.3611093629270335e-15 -3.531125038440127e-31 -0.5821111406272211 -11.507524542768326 -1.7731842878175468 5.249246391620775 11.853249089461244 -34.74358625018226 -1.863194333332208e-32 -6.957463365701443e-16 -3.068738305943315e-15 1.3257385828788812 -2.1867468618810246 18.162258756340787 -4.975455634591544 3.5051970560037513 6.772020954810261 0.0 0.0 8.479408476948635e-16
-111.60000610351562 11.300000190734863 -5.299999713897705 -1.4688157355031204 1.794417371707308 94.73188032470425 -1.232769231634696e-07 -6.866455523905563e-08 -1.9046462674045135 93.09322458644807 1.515031305621854 176.60324319612513 1.500942337896631e-06 3.049415576683042e-06 27.73810803447585 -3.1805546814635168e-15 -3.1805546814635168e-15 -8.827812596100317e-32 -98.62960901443785 5.54417372689511 -175.4146582008883 -2.5238634801755486e-06 5.650842742842902e-06 -24.602119280815774 3.1805546814635168e-15 -1.7655625192200634e-31 -6.3611093629270335e-15 -0.507351828820122 -11.188787106711741 -1.2642973439406953 5.349953594837432 11.80374600377061 -34.29680657498949 -1.987846675914698e-16 3.0388710352786736e-33 -1.7517898831498276e-15 1.6768616140878045 -1.8888776772592573 17.59660139199385 -5.416466564519093 3.482534050556708 6.823800413583882 1.605644625023129e-33 3.975693351829396e-16 -4.627955542363906e-16
-111.60000610351562 11.5 -5.799999713897705 -1.6366020457795172 1.6359091962395746 94.72354570514786 -1.6568463681424602e-07 -6.94635055895094e-08 -2.058582592554613 93.40575752536766 0.9519959603146194 176.7636965414896 -9.863862387441217e-07 6.326880508487143e-06 26.776135085568253 0.0 0.0 -6.361109362927035e-15 -98.51704524735433 6.292096494959372 -175.799984222155 -2.43812613944981e-06 3.3981156698631695e-06 -23.941473901707433 -3.1805546814635168e-15 0.0 0.0 -0.637894905323162 -11.348152793161006 -0.6173539480544075 5.481520936012088 11.611661707917133 -34.07906243051065 -3.4914688490435825e-33 -8.94531004161614e-16 -4.47265502080807e-16 1.6719208741247438 -2.19613970625421 16.92195170043051 -5.596742642926624 3.760733550134609 7.476126447923022 1.987846675914698e-16 5.404233419121471e-33 3.115328462410066e-15
